<?xml version="1.0" standalone="no"?><!DOCTYPE svg PUBLIC "-//W3C//DTD SVG 1.1//EN" "http://www.w3.org/Graphics/SVG/1.1/DTD/svg11.dtd"><svg t="1758692149092" class="icon" viewBox="0 0 1024 1024" version="1.1" xmlns="http://www.w3.org/2000/svg" p-id="7116" xmlns:xlink="http://www.w3.org/1999/xlink" width="32" height="32"><path d="M780.530173 627.358025l153.28395-37.925926a23.703704 23.703704 0 0 0 18.962963-30.024692 26.864198 26.864198 0 0 0-31.604938-17.382716l-203.851852 52.148149-153.28395-82.17284 173.82716-93.234568 203.851852 50.567901h6.320988a25.283951 25.283951 0 0 0 25.28395-20.54321 23.703704 23.703704 0 0 0-18.962963-26.864197l-153.28395-37.925926 180.148148-96.395062a23.703704 23.703704 0 0 0 9.481481-33.185185 26.864198 26.864198 0 0 0-34.765432-9.481481l-180.148148 97.975308 41.08642-142.222222a23.703704 23.703704 0 0 0-18.962963-30.024691 26.864198 26.864198 0 0 0-31.604938 17.382716l-55.308642 189.629629-173.827161 93.234568V284.444444l148.54321-137.481481a22.123457 22.123457 0 0 0 0-34.765432 26.864198 26.864198 0 0 0-36.345679 0l-112.197531 104.296296V23.703704a26.864198 26.864198 0 0 0-52.148148 0v192.790123l-112.197531-104.296296a26.864198 26.864198 0 0 0-36.345679 0 22.123457 22.123457 0 0 0 0 34.765432l148.54321 137.481481v184.888889l-173.82716-93.234568L257.468444 189.62963a26.864198 26.864198 0 0 0-31.604938-17.382716 23.703704 23.703704 0 0 0-18.962963 30.024691l41.08642 142.222222-180.148148-97.975308a26.864198 26.864198 0 0 0-34.765432 9.481481 23.703704 23.703704 0 0 0 9.481481 33.185185l180.148148 96.395062-154.864197 36.345679a23.703704 23.703704 0 0 0-18.962963 30.024691 26.864198 26.864198 0 0 0 31.604938 17.382716l203.851852-50.567901 173.82716 93.234568-153.28395 82.17284-202.271605-50.567902a26.864198 26.864198 0 0 0-31.604938 17.382716 23.703704 23.703704 0 0 0 17.382716 30.024692l153.28395 37.925926L40.974617 734.814815a23.703704 23.703704 0 0 0-12.641975 26.864197 25.283951 25.283951 0 0 0 25.283951 17.382716l12.641975-3.160493 200.691358-107.456791-41.08642 142.222223a23.703704 23.703704 0 0 0 18.962963 30.024691 26.864198 26.864198 0 0 0 31.604938-17.382716l55.308642-188.049383 153.283951-82.172839v164.345679l-148.54321 137.481481a22.123457 22.123457 0 0 0 0 34.765432 26.864198 26.864198 0 0 0 36.345679 0l112.197531-104.296296v213.333333a26.864198 26.864198 0 0 0 52.148148 0V785.382716l112.197531 104.296296a26.864198 26.864198 0 0 0 36.345679 0 22.123457 22.123457 0 0 0 0-34.765432l-148.54321-137.481481V553.08642l153.283951 82.172839 55.308642 188.049383a26.864198 26.864198 0 0 0 31.604938 17.382716 23.703704 23.703704 0 0 0 18.962963-30.024691l-41.08642-142.222223 200.691358 107.456791a28.444444 28.444444 0 0 0 20.54321 3.160493 25.283951 25.283951 0 0 0 15.802469-11.061728 22.123457 22.123457 0 0 0 3.160494-18.962963 23.703704 23.703704 0 0 0-12.641975-14.222222z" fill="#AAE9FF" p-id="7117"></path></svg>